<svg width="68" height="60" viewBox="0 0 68 60" fill="none" xmlns="http://www.w3.org/2000/svg">
<path d="M5 60C3.66667 60 2.5 59.5 1.5 58.5C0.5 57.5 0 56.3333 0 55V5C0 3.66667 0.5 2.5 1.5 1.5C2.5 0.5 3.66667 0 5 0H63C64.3333 0 65.5 0.5 66.5 1.5C67.5 2.5 68 3.66667 68 5V55C68 56.3333 67.5 57.5 66.5 58.5C65.5 59.5 64.3333 60 63 60H5ZM24 46.6667C24.9444 46.6667 25.7361 46.3472 26.375 45.7083C27.0139 45.0694 27.3333 44.2778 27.3333 43.3333C27.3333 42.3889 27.0139 41.5972 26.375 40.9583C25.7361 40.3194 24.9444 40 24 40H14C13.0556 40 12.2639 40.3194 11.625 40.9583C10.9861 41.5972 10.6667 42.3889 10.6667 43.3333C10.6667 44.2778 10.9861 45.0694 11.625 45.7083C12.2639 46.3472 13.0556 46.6667 14 46.6667H24ZM42.5 30.5833L40.0833 28.1667C39.4167 27.5 38.6389 27.1806 37.75 27.2083C36.8611 27.2361 36.0833 27.5833 35.4167 28.25C34.8056 28.9167 34.4861 29.6944 34.4583 30.5833C34.4306 31.4722 34.75 32.25 35.4167 32.9167L40.75 38.25C41.25 38.75 41.8333 39 42.5 39C43.1667 39 43.75 38.75 44.25 38.25L56.6667 25.8333C57.3333 25.1667 57.6667 24.3889 57.6667 23.5C57.6667 22.6111 57.3333 21.8333 56.6667 21.1667C56 20.5 55.2083 20.1667 54.2917 20.1667C53.375 20.1667 52.5833 20.5 51.9167 21.1667L42.5 30.5833ZM24 33.3333C24.9444 33.3333 25.7361 33.0139 26.375 32.375C27.0139 31.7361 27.3333 30.9444 27.3333 30C27.3333 29.0556 27.0139 28.2639 26.375 27.625C25.7361 26.9861 24.9444 26.6667 24 26.6667H14C13.0556 26.6667 12.2639 26.9861 11.625 27.625C10.9861 28.2639 10.6667 29.0556 10.6667 30C10.6667 30.9444 10.9861 31.7361 11.625 32.375C12.2639 33.0139 13.0556 33.3333 14 33.3333H24ZM24 20C24.9444 20 25.7361 19.6806 26.375 19.0417C27.0139 18.4028 27.3333 17.6111 27.3333 16.6667C27.3333 15.7222 27.0139 14.9306 26.375 14.2917C25.7361 13.6528 24.9444 13.3333 24 13.3333H14C13.0556 13.3333 12.2639 13.6528 11.625 14.2917C10.9861 14.9306 10.6667 15.7222 10.6667 16.6667C10.6667 17.6111 10.9861 18.4028 11.625 19.0417C12.2639 19.6806 13.0556 20 14 20H24Z" fill="#333333"/>
</svg>
