<svg width="68" height="68" viewBox="0 0 68 68" fill="none" xmlns="http://www.w3.org/2000/svg">
<path d="M59.1018 8.44556H59.0973L66.6393 9.95306C67.0443 10.0341 67.3773 10.3311 67.4943 10.7316C67.5534 10.9261 67.5587 11.133 67.5096 11.3303C67.4604 11.5276 67.3588 11.7079 67.2153 11.8521L61.0368 18.0351C60.2976 18.7729 59.2958 19.1872 58.2513 19.1871H53.1304L40.2603 32.0616C40.5059 32.9887 40.551 33.9574 40.3928 34.9034C40.2346 35.8493 39.8766 36.7506 39.3427 37.5473C38.8088 38.344 38.1112 39.0178 37.2965 39.5238C36.4818 40.0298 35.5686 40.3564 34.6178 40.4818C33.6669 40.6071 32.7003 40.5285 31.7823 40.251C30.8642 39.9735 30.0159 39.5035 29.2937 38.8724C28.5715 38.2414 27.9921 37.4636 27.5941 36.5911C27.196 35.7185 26.9885 34.7711 26.9854 33.8121C26.986 32.7766 27.2248 31.7551 27.6831 30.8266C28.1415 29.8981 28.8072 29.0874 29.6288 28.4571C30.4504 27.8269 31.406 27.394 32.4215 27.1919C33.4371 26.9898 34.4856 27.0239 35.4859 27.2916L48.3603 14.4126V9.29606C48.3603 8.25206 48.7743 7.24856 49.5123 6.51056L55.6954 0.327559C55.8395 0.184139 56.0198 0.0824594 56.2171 0.0333323C56.4144 -0.0157948 56.6213 -0.0105327 56.8158 0.0485591C57.2163 0.165559 57.5133 0.498559 57.5943 0.903559L59.1018 8.44556Z" fill="#333333"/>
<path d="M6.73547 33.812C6.74009 37.6728 7.57267 41.4877 9.17702 44.9994C10.7814 48.5111 13.1202 51.6379 16.0357 54.1688C18.9513 56.6998 22.3757 58.576 26.078 59.671C29.7803 60.766 33.6744 61.0542 37.4975 60.5163C41.3207 59.9783 44.984 58.6267 48.2404 56.5526C51.4968 54.4784 54.2705 51.7301 56.3744 48.4929C58.4783 45.2556 59.8634 41.6049 60.4364 37.7868C61.0094 33.9687 60.7569 30.0722 59.696 26.36C59.547 25.9263 59.4879 25.4668 59.5222 25.0095C59.5564 24.5522 59.6834 24.1067 59.8954 23.7001C60.1074 23.2934 60.3999 22.9342 60.7551 22.6442C61.1103 22.3542 61.5209 22.1396 61.9617 22.0133C62.4025 21.887 62.8645 21.8518 63.3193 21.9098C63.7742 21.9677 64.2126 22.1177 64.6077 22.3504C65.0028 22.5832 65.3463 22.894 65.6175 23.2638C65.8887 23.6336 66.0817 24.0547 66.185 24.5015C68.2393 31.6903 67.8491 39.3578 65.0755 46.301C62.3019 53.2441 57.3019 59.0701 50.8598 62.8649C44.4178 66.6597 36.8983 68.2086 29.4809 67.2686C22.0636 66.3285 15.1682 62.9528 9.87647 57.671C4.59051 52.3806 1.21116 45.4845 0.268987 38.0654C-0.673185 30.6464 0.875176 23.1245 4.67097 16.6808C8.46677 10.2371 14.295 5.23635 21.2407 2.4638C28.1865 -0.30875 35.8563 -0.696134 43.046 1.36247C43.9021 1.61272 44.6243 2.19167 45.0548 2.9728C45.4853 3.75393 45.5891 4.67372 45.3436 5.53116C45.098 6.3886 44.523 7.11397 43.7442 7.54875C42.9655 7.98353 42.0462 8.09236 41.1875 7.85147C37.1671 6.69796 32.9337 6.4941 28.8211 7.25596C24.7085 8.01782 20.829 9.72457 17.4886 12.2417C14.1482 14.7587 11.4382 18.0174 9.57209 21.7606C7.70602 25.5038 6.73496 29.6294 6.73547 33.812Z" fill="#333333"/>
<path d="M20.2353 33.8121C20.2356 36.2717 20.9074 38.6846 22.1782 40.7905C23.4491 42.8964 25.2708 44.6154 27.4469 45.762C29.6229 46.9086 32.0707 47.4393 34.5263 47.2969C36.9818 47.1546 39.3519 46.3445 41.3808 44.9541C43.4094 43.5601 45.0183 41.6382 46.0335 39.396C47.0487 37.1537 47.4316 34.6767 47.1408 32.2326C47.0621 31.6395 47.143 31.0361 47.375 30.4847C47.607 29.9332 47.9819 29.4536 48.4609 29.0951C48.9399 28.7366 49.5058 28.5123 50.1003 28.4453C50.6948 28.3782 51.2965 28.4708 51.8433 28.7136C52.39 28.9532 52.8634 29.3335 53.2152 29.8157C53.567 30.2979 53.7846 30.8648 53.8458 31.4586C54.3348 35.635 53.5114 39.8601 51.4901 43.5474C49.4688 47.2347 46.3497 50.2013 42.5659 52.0354C38.782 53.8695 34.521 54.4802 30.3742 53.7827C26.2275 53.0852 22.4008 51.1141 19.4251 48.143C16.4495 45.1719 14.4726 41.3482 13.7688 37.2025C13.065 33.0569 13.6693 28.7949 15.4976 25.0083C17.326 21.2216 20.2879 18.098 23.9721 16.0711C27.6563 14.0442 31.8801 13.2145 36.0573 13.6971C36.5046 13.7386 36.9391 13.8689 37.3353 14.0805C37.7316 14.2921 38.0816 14.5807 38.3648 14.9293C38.6481 15.278 38.8589 15.6796 38.985 16.1108C39.111 16.5419 39.1497 16.9939 39.0987 17.4402C39.0478 17.8865 38.9083 18.3182 38.6884 18.7099C38.4685 19.1016 38.1726 19.4454 37.8181 19.7213C37.4636 19.9971 37.0576 20.1994 36.6238 20.3163C36.1901 20.4332 35.7374 20.4624 35.2923 20.4021C33.4008 20.1824 31.4842 20.3655 29.6684 20.9391C27.8526 21.5128 26.1787 22.4641 24.7567 23.7306C23.3346 24.9971 22.1966 26.5501 21.4174 28.2876C20.6381 30.0251 20.2353 31.9078 20.2353 33.8121Z" fill="#333333"/>
</svg>
