<svg width="60" height="67" viewBox="0 0 60 67" fill="none" xmlns="http://www.w3.org/2000/svg">
<path d="M5 66.6667C3.61111 66.6667 2.43056 66.1806 1.45833 65.2083C0.486111 64.2361 0 63.0556 0 61.6667V11.6667C0 10.2778 0.486111 9.09722 1.45833 8.125C2.43056 7.15278 3.61111 6.66667 5 6.66667H22.0833C22.3611 4.72222 23.25 3.125 24.75 1.875C26.25 0.625 28 0 30 0C32 0 33.75 0.625 35.25 1.875C36.75 3.125 37.6389 4.72222 37.9167 6.66667H55C56.3889 6.66667 57.5694 7.15278 58.5417 8.125C59.5139 9.09722 60 10.2778 60 11.6667V61.6667C60 63.0556 59.5139 64.2361 58.5417 65.2083C57.5694 66.1806 56.3889 66.6667 55 66.6667H5ZM30 10.25C30.7778 10.25 31.4583 9.95833 32.0417 9.375C32.625 8.79167 32.9167 8.11111 32.9167 7.33333C32.9167 6.55556 32.625 5.875 32.0417 5.29167C31.4583 4.70833 30.7778 4.41667 30 4.41667C29.2222 4.41667 28.5417 4.70833 27.9583 5.29167C27.375 5.875 27.0833 6.55556 27.0833 7.33333C27.0833 8.11111 27.375 8.79167 27.9583 9.375C28.5417 9.95833 29.2222 10.25 30 10.25ZM15.0833 52.5833H17.8333C18.1667 52.5833 18.4722 52.5278 18.75 52.4167C19.0278 52.3056 19.3056 52.1111 19.5833 51.8333L40.0833 31.3333L35.1667 26.25L14.5833 46.8333C14.3056 47.1111 14.1111 47.3889 14 47.6667C13.8889 47.9444 13.8333 48.25 13.8333 48.5833V51.3333C13.8333 51.6667 13.9583 51.9583 14.2083 52.2083C14.4583 52.4583 14.75 52.5833 15.0833 52.5833ZM41.5833 29.8333L44.8333 26.5833C45.2222 26.1944 45.4306 25.7639 45.4583 25.2917C45.4861 24.8194 45.2778 24.3611 44.8333 23.9167L42.4167 21.5833C41.9722 21.1389 41.5278 20.9306 41.0833 20.9583C40.6389 20.9861 40.2222 21.1944 39.8333 21.5833L36.6667 24.75L41.5833 29.8333Z" fill="#333333"/>
</svg>
