<svg width="428" height="117" viewBox="0 0 428 117" fill="none" xmlns="http://www.w3.org/2000/svg">
<path d="M87.4234 91.3278H69.9753V28.8564C69.9753 27.6363 69.7313 26.4975 69.2432 25.44C68.7958 24.3826 68.1654 23.4675 67.352 22.6947C66.5792 21.8813 65.6641 21.2509 64.6067 20.8035C63.5492 20.3561 62.4104 20.1324 61.1903 20.1324C59.9701 20.1324 58.8313 20.3561 57.7739 20.8035C56.7164 21.2509 55.781 21.8813 54.9675 22.6947C54.1948 23.4675 53.5847 24.3826 53.1373 25.44C52.6899 26.4975 52.4662 27.6363 52.4662 28.8564V91.3278H34.9571V28.8564C34.9571 27.6363 34.7335 26.4975 34.2861 25.44C33.8387 24.3826 33.2083 23.4675 32.3948 22.6947C31.6221 21.8813 30.707 21.2509 29.6495 20.8035C28.5921 20.3561 27.4533 20.1324 26.2331 20.1324C25.013 20.1324 23.8742 20.3561 22.8167 20.8035C21.7592 21.2509 20.8238 21.8813 20.0104 22.6947C19.2376 23.4675 18.6275 24.3826 18.1802 25.44C17.7328 26.4975 17.5091 27.6363 17.5091 28.8564V91.3278H0V28.8564C0 25.2367 0.671079 21.8406 2.01324 18.6682C3.39607 15.4552 5.26696 12.6692 7.62591 10.3102C10.0255 7.91061 12.8115 6.03972 15.9839 4.69756C19.1969 3.31473 22.6134 2.62331 26.2331 2.62331C29.4868 2.62331 32.6185 3.21305 35.6282 4.39252C38.6379 5.53133 41.3426 7.19886 43.7422 9.39512C46.1418 7.19886 48.8261 5.53133 51.7951 4.39252C54.8048 3.21305 57.9365 2.62331 61.1903 2.62331C64.81 2.62331 68.2061 3.31473 71.3785 4.69756C74.5915 6.03972 77.3775 7.91061 79.7365 10.3102C82.1361 12.6692 84.007 15.4552 85.3491 18.6682C86.732 21.8406 87.4234 25.2367 87.4234 28.8564V91.3278Z" fill="#ED4B58"/>
<path d="M116.341 116.219V99.4418L125.614 99.5638C127.241 99.5638 128.807 99.2995 130.311 98.7707C131.816 98.242 133.199 97.5099 134.46 96.5745C135.761 95.639 136.9 94.5206 137.876 93.2191C138.852 91.9582 139.646 90.5754 140.256 89.0706C138.425 89.8433 136.555 90.6161 134.643 91.3888C132.772 92.1616 130.881 92.548 128.969 92.548C124.943 92.548 121.16 91.8362 117.622 90.4127C114.084 88.9892 110.972 86.976 108.288 84.373C105.644 81.7294 103.55 78.5367 102.004 74.7949C100.499 71.0124 99.7468 66.7826 99.7468 62.1054V25.9891H116.341V62.1054C116.341 64.4236 116.666 66.4572 117.317 68.2061C118.008 69.9143 118.923 71.3581 120.062 72.5376C121.201 73.6764 122.523 74.5305 124.028 75.0999C125.573 75.6693 127.22 75.954 128.969 75.954C130.678 75.954 132.284 75.5676 133.789 74.7949C135.334 73.9814 136.677 72.924 137.815 71.6225C138.954 70.321 139.849 68.8568 140.5 67.23C141.15 65.5624 141.476 63.8542 141.476 62.1054V25.9891H158.253V83.0919C158.212 87.6877 157.317 91.9989 155.568 96.0254C153.82 100.052 151.42 103.57 148.37 106.58C145.36 109.589 141.842 111.969 137.815 113.717C133.789 115.466 129.478 116.341 124.882 116.341L116.341 116.219Z" fill="#ED4B58"/>
<path d="M190.282 21.3525V56.3707H207.791C210.19 56.3707 212.448 55.9233 214.562 55.0285C216.677 54.0931 218.528 52.8323 220.114 51.2461C221.7 49.6599 222.941 47.8093 223.836 45.6944C224.771 43.5388 225.239 41.2612 225.239 38.8616C225.239 36.462 224.771 34.2047 223.836 32.0898C222.941 29.9342 221.7 28.0633 220.114 26.4771C218.528 24.891 216.677 23.6505 214.562 22.7557C212.448 21.8203 210.19 21.3525 207.791 21.3525H190.282ZM190.282 91.3278H172.773V47.5857V3.84346H207.791C211.004 3.84346 214.095 4.27051 217.064 5.12461C220.033 5.93804 222.798 7.11751 225.361 8.66303C227.964 10.1679 230.323 11.9981 232.438 14.1537C234.593 16.2686 236.423 18.6275 237.928 21.2305C239.474 23.8335 240.653 26.6195 241.467 29.5885C242.321 32.5575 242.748 35.6486 242.748 38.8616C242.748 43.6609 241.833 48.1957 240.002 52.4662C238.172 56.6961 235.671 60.3972 232.499 63.5695C229.326 66.7419 225.605 69.2432 221.334 71.0734C217.104 72.9036 212.59 73.8188 207.791 73.8188H190.282V91.3278Z" fill="#333333"/>
<path d="M268.066 91.3278H251.289V0H268.066V91.3278Z" fill="#333333"/>
<path d="M344.081 91.3278H340.054L333.588 82.3598C332.001 83.7833 330.314 85.1254 328.524 86.3863C326.775 87.6064 324.925 88.6842 322.972 89.6196C321.02 90.5144 319.007 91.2262 316.933 91.7549C314.899 92.2836 312.825 92.548 310.71 92.548C306.114 92.548 301.782 91.7752 297.715 90.2297C293.689 88.6842 290.15 86.4473 287.1 83.5189C284.09 80.5499 281.711 76.9301 279.962 72.6596C278.213 68.3891 277.339 63.5289 277.339 58.0789C277.339 52.995 278.213 48.3381 279.962 44.1082C281.711 39.8377 284.09 36.1773 287.1 33.1269C290.15 30.0766 293.689 27.7176 297.715 26.0501C301.782 24.3419 306.114 23.4878 310.71 23.4878C312.825 23.4878 314.919 23.7522 316.994 24.2809C319.068 24.8096 321.081 25.5417 323.033 26.4771C324.986 27.4126 326.836 28.5107 328.585 29.7715C330.375 31.0324 332.042 32.3948 333.588 33.859L340.054 26.1111H344.081V91.3278ZM327.304 58.0789C327.304 55.8013 326.856 53.605 325.962 51.4901C325.108 49.3345 323.928 47.4433 322.423 45.8164C320.918 44.1489 319.149 42.8271 317.116 41.851C315.123 40.8342 312.988 40.3258 310.71 40.3258C308.432 40.3258 306.277 40.7122 304.243 41.4849C302.25 42.2577 300.501 43.3965 298.996 44.9013C297.532 46.4062 296.373 48.2771 295.519 50.514C294.665 52.7103 294.238 55.2319 294.238 58.0789C294.238 60.9259 294.665 63.4679 295.519 65.7048C296.373 67.9011 297.532 69.7516 298.996 71.2565C300.501 72.7613 302.25 73.9001 304.243 74.6729C306.277 75.4456 308.432 75.832 310.71 75.832C312.988 75.832 315.123 75.3439 317.116 74.3678C319.149 73.3511 320.918 72.0292 322.423 70.4024C323.928 68.7348 325.108 66.8436 325.962 64.7287C326.856 62.5731 327.304 60.3565 327.304 58.0789Z" fill="#333333"/>
<path d="M373.486 91.3278H356.831V25.9891H360.858L366.348 32.3338C369.033 29.8935 372.063 28.0227 375.439 26.7212C378.855 25.379 382.414 24.7079 386.115 24.7079C390.101 24.7079 393.863 25.4807 397.401 27.0262C400.94 28.5311 404.031 30.6256 406.674 33.31C409.318 35.9536 411.392 39.065 412.897 42.6441C414.443 46.1825 415.215 49.9649 415.215 53.9914V91.3278H398.56V53.9914C398.56 52.2832 398.235 50.6767 397.584 49.1718C396.933 47.6263 396.039 46.2842 394.9 45.1454C393.761 44.0066 392.439 43.1118 390.934 42.461C389.43 41.8103 387.823 41.4849 386.115 41.4849C384.366 41.4849 382.719 41.8103 381.173 42.461C379.628 43.1118 378.286 44.0066 377.147 45.1454C376.008 46.2842 375.113 47.6263 374.462 49.1718C373.812 50.6767 373.486 52.2832 373.486 53.9914V91.3278Z" fill="#333333"/>
<path d="M428 84.3246C428.002 87.1889 427.155 89.9895 425.565 92.3722C423.976 94.7548 421.715 96.6125 419.07 97.7102C416.424 98.8079 413.512 99.0962 410.703 98.5389C407.893 97.9815 405.312 96.6034 403.286 94.5788C401.26 92.5543 399.88 89.9743 399.32 87.1652C398.76 84.3562 399.047 81.4442 400.142 78.7978C401.238 76.1513 403.094 73.8893 405.475 72.2977C407.856 70.7062 410.656 69.8567 413.521 69.8567C417.358 69.8577 421.039 71.382 423.754 74.0947C426.469 76.8074 427.996 80.4868 428 84.3246Z" fill="#ED4B58"/>
<path d="M411.336 91.1086C410.698 91.1081 410.085 90.8551 409.632 90.4048L405.264 86.0322C404.812 85.5813 404.558 84.9697 404.558 84.3317C404.558 83.6938 404.811 83.0819 405.262 82.6305C405.712 82.1792 406.324 81.9254 406.962 81.9251C407.6 81.9247 408.212 82.1778 408.663 82.6286L411.355 85.3014L418.401 78.2559C418.624 78.0327 418.89 77.8557 419.181 77.7349C419.473 77.6142 419.786 77.5522 420.102 77.5524C420.418 77.5525 420.731 77.615 421.022 77.736C421.314 77.857 421.579 78.0343 421.802 78.2578C422.026 78.4813 422.203 78.7466 422.323 79.0385C422.444 79.3304 422.506 79.6432 422.506 79.9591C422.506 80.2749 422.443 80.5876 422.322 80.8794C422.201 81.1712 422.024 81.4362 421.801 81.6595L413.055 90.4048C412.83 90.6303 412.562 90.8087 412.266 90.9295C411.971 91.0503 411.655 91.1112 411.336 91.1086Z" fill="#F1F2F2"/>
</svg>
