<svg width="177" height="48" viewBox="0 0 177 48" fill="none" xmlns="http://www.w3.org/2000/svg">
<path d="M36.0034 37.6801H28.8178V11.9056C28.8178 11.4022 28.7173 10.9324 28.5163 10.4961C28.332 10.0598 28.0724 9.68222 27.7374 9.3634C27.4192 9.02779 27.0423 8.7677 26.6068 8.58312C26.1713 8.39853 25.7023 8.30624 25.1999 8.30624C24.6974 8.30624 24.2284 8.39853 23.7929 8.58312C23.3574 8.7677 22.9721 9.02779 22.6372 9.3634C22.3189 9.68222 22.0677 10.0598 21.8834 10.4961C21.6992 10.9324 21.607 11.4022 21.607 11.9056V37.6801H14.3963V11.9056C14.3963 11.4022 14.3042 10.9324 14.12 10.4961C13.9357 10.0598 13.6761 9.68222 13.3411 9.3634C13.0229 9.02779 12.646 8.7677 12.2105 8.58312C11.775 8.39853 11.306 8.30624 10.8035 8.30624C10.301 8.30624 9.83205 8.39853 9.39655 8.58312C8.96106 8.7677 8.57582 9.02779 8.24083 9.3634C7.92259 9.68222 7.67134 10.0598 7.48709 10.4961C7.30285 10.9324 7.21072 11.4022 7.21072 11.9056V37.6801H0V11.9056C0 10.4122 0.276369 9.01101 0.829108 7.70215C1.3986 6.37651 2.16908 5.22706 3.14056 4.2538C4.12879 3.26377 5.27614 2.49187 6.58261 1.93812C7.90584 1.36759 9.31281 1.08233 10.8035 1.08233C12.1435 1.08233 13.4332 1.32564 14.6727 1.81227C15.9122 2.28212 17.026 2.97011 18.0143 3.87625C19.0025 2.97011 20.108 2.28212 21.3307 1.81227C22.5702 1.32564 23.8599 1.08233 25.1999 1.08233C26.6906 1.08233 28.0892 1.36759 29.3956 1.93812C30.7189 2.49187 31.8662 3.26377 32.8377 4.2538C33.8259 5.22706 34.5964 6.37651 35.1491 7.70215C35.7186 9.01101 36.0034 10.4122 36.0034 11.9056V37.6801Z" fill="#ED4B58"/>
<path d="M47.9124 47.9497V41.0278L51.7313 41.0781C52.4013 41.0781 53.0461 40.9691 53.6659 40.7509C54.2856 40.5328 54.8551 40.2307 55.3744 39.8448C55.9103 39.4588 56.3793 38.9974 56.7813 38.4604C57.1833 37.9402 57.5099 37.3697 57.7612 36.7488C57.0074 37.0676 56.237 37.3865 55.4497 37.7053C54.6792 38.0241 53.9004 38.1835 53.1131 38.1835C51.4549 38.1835 49.8972 37.8899 48.44 37.3026C46.9828 36.7153 45.7014 35.8846 44.5959 34.8107C43.5072 33.72 42.6446 32.4027 42.0081 30.8589C41.3884 29.2984 41.0785 27.5532 41.0785 25.6235V10.7226H47.9124V25.6235C47.9124 26.58 48.0464 27.419 48.3144 28.1405C48.5991 28.8453 48.976 29.441 49.445 29.9276C49.914 30.3975 50.4583 30.7499 51.0781 30.9848C51.7146 31.2197 52.3929 31.3372 53.1131 31.3372C53.8166 31.3372 54.4782 31.1778 55.098 30.8589C55.7345 30.5233 56.2872 30.087 56.7562 29.5501C57.2252 29.0131 57.5937 28.409 57.8617 27.7378C58.1297 27.0498 58.2637 26.345 58.2637 25.6235V10.7226H65.1729V34.2821C65.1562 36.1783 64.7877 37.957 64.0674 39.6182C63.3472 41.2795 62.359 42.731 61.1027 43.9727C59.8633 45.2145 58.4144 46.1961 56.7562 46.9177C55.098 47.6392 53.3225 48 51.4298 48L47.9124 47.9497Z" fill="#ED4B58"/>
<path d="M78.3633 8.80965V23.2575H85.574C86.5622 23.2575 87.4918 23.0729 88.3628 22.7037C89.2338 22.3178 89.9959 21.7976 90.6491 21.1432C91.3024 20.4887 91.8132 19.7252 92.1817 18.8526C92.567 17.9633 92.7596 17.0236 92.7596 16.0336C92.7596 15.0435 92.567 14.1122 92.1817 13.2396C91.8132 12.3503 91.3024 11.5784 90.6491 10.924C89.9959 10.2695 89.2338 9.75774 88.3628 9.38857C87.4918 9.00262 86.5622 8.80965 85.574 8.80965H78.3633ZM78.3633 37.6801H71.1525V19.6329V1.58574H85.574C86.8972 1.58574 88.1702 1.76193 89.3929 2.11432C90.6156 2.44992 91.7546 2.93655 92.8098 3.5742C93.8818 4.19507 94.8533 4.95018 95.7243 5.83954C96.612 6.71211 97.3657 7.68537 97.9855 8.75931C98.6219 9.83325 99.1077 10.9827 99.4427 12.2077C99.7944 13.4326 99.9703 14.7079 99.9703 16.0336C99.9703 18.0136 99.5934 19.8846 98.8397 21.6466C98.086 23.3917 97.0559 24.9187 95.7494 26.2276C94.4429 27.5364 92.9103 28.5684 91.1516 29.3235C89.4096 30.0787 87.5504 30.4562 85.574 30.4562H78.3633V37.6801Z" fill="white"/>
<path d="M110.397 37.6801H103.488V0H110.397V37.6801Z" fill="white"/>
<path d="M141.702 37.6801H140.044L137.381 33.9801C136.727 34.5674 136.032 35.1211 135.295 35.6413C134.575 36.1447 133.813 36.5894 133.009 36.9754C132.205 37.3445 131.376 37.6382 130.522 37.8563C129.684 38.0745 128.83 38.1835 127.959 38.1835C126.066 38.1835 124.282 37.8647 122.607 37.2271C120.949 36.5894 119.492 35.6665 118.236 34.4583C116.996 33.2334 116.016 31.7399 115.296 29.978C114.576 28.216 114.216 26.2108 114.216 23.9622C114.216 21.8647 114.576 19.9434 115.296 18.1982C116.016 16.4363 116.996 14.9261 118.236 13.6675C119.492 12.409 120.949 11.4358 122.607 10.7478C124.282 10.043 126.066 9.69061 127.959 9.69061C128.83 9.69061 129.693 9.79969 130.547 10.0178C131.401 10.236 132.23 10.538 133.034 10.924C133.838 11.3099 134.6 11.763 135.32 12.2832C136.057 12.8034 136.744 13.3655 137.381 13.9696L140.044 10.7729H141.702V37.6801ZM134.793 23.9622C134.793 23.0226 134.609 22.1164 134.24 21.2438C133.888 20.3545 133.403 19.5742 132.783 18.903C132.163 18.215 131.435 17.6696 130.597 17.2669C129.776 16.8474 128.897 16.6377 127.959 16.6377C127.021 16.6377 126.133 16.7971 125.296 17.1159C124.475 17.4347 123.755 17.9046 123.135 18.5254C122.532 19.1463 122.055 19.9182 121.703 20.8411C121.351 21.7472 121.175 22.7876 121.175 23.9622C121.175 25.1369 121.351 26.1856 121.703 27.1085C122.055 28.0147 122.532 28.7782 123.135 29.3991C123.755 30.0199 124.475 30.4898 125.296 30.8086C126.133 31.1274 127.021 31.2868 127.959 31.2868C128.897 31.2868 129.776 31.0855 130.597 30.6828C131.435 30.2632 132.163 29.7179 132.783 29.0467C133.403 28.3587 133.888 27.5784 134.24 26.7058C134.609 25.8165 134.793 24.9019 134.793 23.9622Z" fill="white"/>
<path d="M153.812 37.6801H146.953V10.7226H148.611L150.872 13.3403C151.978 12.3335 153.226 11.5616 154.616 11.0246C156.023 10.4709 157.489 10.194 159.013 10.194C160.654 10.194 162.204 10.5128 163.661 11.1505C165.118 11.7714 166.391 12.6356 167.48 13.7431C168.568 14.8338 169.423 16.1175 170.042 17.5941C170.679 19.054 170.997 20.6146 170.997 22.2758V37.6801H164.138V22.2758C164.138 21.5711 164.004 20.9082 163.736 20.2874C163.468 19.6497 163.1 19.096 162.631 18.6261C162.162 18.1563 161.617 17.7871 160.998 17.5186C160.378 17.2501 159.716 17.1159 159.013 17.1159C158.293 17.1159 157.614 17.2501 156.978 17.5186C156.341 17.7871 155.789 18.1563 155.32 18.6261C154.851 19.096 154.482 19.6497 154.214 20.2874C153.946 20.9082 153.812 21.5711 153.812 22.2758V37.6801Z" fill="white"/>
<path d="M176.262 34.7905C176.263 35.9722 175.914 37.1277 175.26 38.1107C174.605 39.0938 173.674 39.8602 172.585 40.3131C171.495 40.766 170.296 40.885 169.139 40.655C167.982 40.425 166.919 39.8565 166.084 39.0212C165.25 38.1859 164.682 37.1214 164.451 35.9625C164.221 34.8035 164.338 33.6021 164.79 32.5102C165.241 31.4183 166.005 30.485 166.986 29.8284C167.967 29.1718 169.12 28.8213 170.299 28.8213C171.88 28.8217 173.396 29.4506 174.514 30.5698C175.632 31.689 176.261 33.2071 176.262 34.7905Z" fill="#ED4B58"/>
<path d="M169.4 37.5896C169.137 37.5894 168.884 37.485 168.698 37.2993L166.899 35.4952C166.713 35.3092 166.608 35.0568 166.608 34.7936C166.608 34.5304 166.712 34.278 166.898 34.0917C167.084 33.9055 167.335 33.8008 167.598 33.8007C167.861 33.8005 168.113 33.9049 168.299 34.0909L169.407 35.1937L172.309 32.2869C172.401 32.1948 172.51 32.1217 172.63 32.0719C172.751 32.0221 172.88 31.9965 173.01 31.9966C173.14 31.9967 173.268 32.0224 173.389 32.0723C173.509 32.1223 173.618 32.1954 173.71 32.2876C173.802 32.3798 173.875 32.4893 173.924 32.6097C173.974 32.7301 174 32.8592 174 32.9895C174 33.1199 173.974 33.2489 173.924 33.3693C173.874 33.4896 173.801 33.599 173.709 33.6911L170.107 37.2993C170.015 37.3923 169.904 37.4659 169.783 37.5157C169.661 37.5656 169.531 37.5907 169.4 37.5896Z" fill="#F1F2F2"/>
</svg>
